<svg
   xmlns:dc="http://purl.org/dc/elements/1.1/"
   xmlns:cc="http://creativecommons.org/ns#"
   xmlns:rdf="http://www.w3.org/1999/02/22-rdf-syntax-ns#"
   xmlns:svg="http://www.w3.org/2000/svg"
   xmlns="http://www.w3.org/2000/svg"
   xmlns:sodipodi="http://sodipodi.sourceforge.net/DTD/sodipodi-0.dtd"
   xmlns:inkscape="http://www.inkscape.org/namespaces/inkscape"
   width="41.664791mm"
   height="40.304882mm"
   viewBox="0 0 41.664791 40.304882"
   version="1.1"
   id="svg8"
   inkscape:version="0.92.2 (5c3e80d, 2017-08-06)"
   sodipodi:docname="cupcake.svg">
  <defs
     id="defs2" />
  <sodipodi:namedview
     id="base"
     pagecolor="#ffffff"
     bordercolor="#666666"
     borderopacity="1.0"
     inkscape:pageopacity="0.0"
     inkscape:pageshadow="2"
     inkscape:zoom="0.7"
     inkscape:cx="-36.644743"
     inkscape:cy="152.88102"
     inkscape:document-units="mm"
     inkscape:current-layer="layer1"
     showgrid="false"
     showguides="false"
     inkscape:snap-smooth-nodes="true"
     fit-margin-top="0"
     fit-margin-left="0"
     fit-margin-right="0"
     fit-margin-bottom="0"
     inkscape:window-width="1920"
     inkscape:window-height="1173"
     inkscape:window-x="0"
     inkscape:window-y="0"
     inkscape:window-maximized="0" />
  <metadata
     id="metadata5">
    <rdf:RDF>
      <cc:Work
         rdf:about="">
        <dc:format>image/svg+xml</dc:format>
        <dc:type
           rdf:resource="http://purl.org/dc/dcmitype/StillImage" />
        <dc:title></dc:title>
      </cc:Work>
    </rdf:RDF>
  </metadata>
  <g
     inkscape:label="Layer 1"
     inkscape:groupmode="layer"
     id="layer1"
     transform="translate(-84.167604,-128.34756)">
    <path
       style="fill:none;stroke:#000000;stroke-width:0.26458332px;stroke-linecap:butt;stroke-linejoin:miter;stroke-opacity:1"
       d="M 63.877975,86.278272 Z"
       id="path860"
       inkscape:connector-curvature="0" />
    <g
       id="g888"
       transform="translate(1.0449785e-6,47.347302)">
      <path
         style="stroke-width:13.86700821;stroke-linecap:round;stroke-miterlimit:4;stroke-dasharray:none"
         d="M 77.490234 0.5 C 75.514266 23.974227 32.125889 9.927273 38.068359 34.742188 A 21.449916 64.865247 85.191884 0 0 14.091797 53.738281 A 21.449916 64.865247 85.191884 0 0 19.888672 61.677734 A 23.790515 78.937545 85.711293 0 0 0.01953125 79.373047 A 23.790515 78.937545 85.711293 0 0 20.675781 93.492188 L 35.294922 152.33398 L 122.17969 152.33398 L 138.98633 84.6875 A 23.790515 78.937545 85.711293 0 0 157.45312 67.566406 A 23.790515 78.937545 85.711293 0 0 136.8418 53.457031 A 21.449916 64.865247 85.191884 0 0 143.38281 43.085938 A 21.449916 64.865247 85.191884 0 0 119.56055 28.675781 C 124.33659 4.7900398 85.37556 21.947808 77.490234 0.5 z M 73.953125 59.6875 C 76.312306 59.6875 77.492188 60.670734 77.492188 62.636719 C 77.492188 63.423138 77.239925 64.098443 76.734375 64.660156 C 76.228851 65.165681 75.611089 65.417969 74.880859 65.417969 C 74.319146 65.417969 73.560379 65.332629 72.605469 65.164062 C 72.212272 65.051685 71.622331 64.996094 70.835938 64.996094 C 68.869928 64.996094 67.634431 65.697292 67.128906 67.101562 C 66.623357 68.44967 66.398914 71.792642 66.455078 77.128906 L 66.539062 87.576172 L 90.298828 67.355469 C 90.91673 66.849919 91.226562 66.371236 91.226562 65.921875 C 91.226562 65.303998 90.692263 64.996094 89.625 64.996094 C 89.175639 64.996094 88.867735 65.023889 88.699219 65.080078 C 86.677046 65.304834 85.187332 65.417969 84.232422 65.417969 C 82.210249 65.417969 81.199219 64.434734 81.199219 62.46875 C 81.199219 60.615093 82.406896 59.6875 84.822266 59.6875 C 86.114209 59.6875 87.26627 59.743091 88.277344 59.855469 L 92.744141 60.361328 C 94.710125 60.586084 96.197885 60.699219 97.208984 60.699219 C 99.231132 60.699219 101.72995 60.474776 104.70703 60.025391 C 106.22365 59.800635 107.3479 59.6875 108.07812 59.6875 C 110.21263 59.6875 111.2793 60.642914 111.2793 62.552734 C 111.2793 64.462555 110.29606 65.417969 108.33008 65.417969 C 108.16151 65.417969 107.88143 65.390173 107.48828 65.333984 L 106.56055 65.333984 C 106.27968 65.277795 105.85859 65.248047 105.29688 65.248047 C 103.16237 65.248047 101.2535 65.951198 99.568359 67.355469 L 83.642578 80.667969 C 82.968512 81.229682 82.632812 81.734233 82.632812 82.183594 C 82.632812 82.464463 82.912896 82.943147 83.474609 83.617188 L 84.738281 85.554688 L 98.220703 103.92188 C 101.81566 108.80878 104.5111 111.25391 106.30859 111.25391 C 106.42097 111.25391 106.58982 111.22416 106.81445 111.16797 L 107.23633 111.16797 C 108.75295 110.9994 109.67859 110.91602 110.01562 110.91602 C 112.03777 110.91602 113.04883 111.87143 113.04883 113.78125 C 113.04883 115.6911 111.95434 116.64453 109.76367 116.64453 L 105.55078 116.14062 C 103.47244 115.91587 101.11271 115.80273 98.472656 115.80273 C 95.439409 115.80273 92.265263 115.97159 88.951172 116.30859 C 86.760482 116.53335 85.52501 116.64453 85.244141 116.64453 C 83.165804 116.64453 82.126953 115.71889 82.126953 113.86523 C 82.126953 111.84306 83.22142 110.83203 85.412109 110.83203 C 86.029987 110.83203 86.901964 110.88762 88.025391 111 C 90.21608 111.22476 91.479373 111.33789 91.816406 111.33789 C 93.164513 111.33789 93.837891 111.05585 93.837891 110.49414 C 93.837891 110.10094 93.585628 109.5686 93.080078 108.89453 L 77.408203 87.576172 C 77.07117 87.126811 76.763266 86.902344 76.482422 86.902344 C 76.257666 86.902344 75.892193 87.126811 75.386719 87.576172 L 66.539062 95.328125 C 66.482874 96.339224 66.455078 97.49126 66.455078 98.783203 C 66.455078 103.67008 66.482874 106.28211 66.539062 106.61914 C 66.988423 109.8209 68.392772 111.42187 70.751953 111.42188 C 71.088986 111.42188 71.706722 111.33654 72.605469 111.16797 C 73.504215 110.9994 74.262982 110.91602 74.880859 110.91602 C 75.611089 110.91602 76.228851 111.1961 76.734375 111.75781 C 77.239925 112.26336 77.492188 112.91087 77.492188 113.69727 C 77.492188 115.66328 76.25669 116.64453 73.785156 116.64453 L 73.195312 116.64453 C 72.970557 116.58834 72.77391 116.56055 72.605469 116.56055 L 67.886719 115.88672 C 66.707128 115.71815 64.88169 115.63477 62.410156 115.63477 C 60.612678 115.63477 59.124911 115.71815 57.945312 115.88672 L 53.310547 116.56055 C 53.198194 116.56055 53.029363 116.58834 52.804688 116.64453 L 52.300781 116.64453 C 49.773076 116.64453 48.507813 115.66328 48.507812 113.69727 C 48.507812 111.8998 49.379785 111 51.121094 111 C 51.626636 111 52.38345 111.08534 53.394531 111.25391 C 54.068587 111.36628 54.658523 111.42188 55.164062 111.42188 C 57.972627 111.42188 59.376953 109.3144 59.376953 105.10156 C 59.376953 105.21394 59.404774 103.24945 59.460938 99.205078 L 59.460938 91.789062 L 59.460938 84.712891 L 59.460938 77.212891 L 59.376953 71.314453 C 59.376953 67.101615 57.972627 64.996094 55.164062 64.996094 C 54.602352 64.996094 54.012416 65.07948 53.394531 65.248047 C 52.38345 65.416614 51.626636 65.501953 51.121094 65.501953 C 49.323613 65.501953 48.423828 64.574335 48.423828 62.720703 C 48.423828 60.754694 49.687136 59.771484 52.214844 59.771484 C 52.495698 59.771484 52.861176 59.801233 53.310547 59.857422 L 57.355469 60.361328 C 59.152954 60.586084 60.668543 60.699219 61.904297 60.699219 C 63.42092 60.699219 65.697222 60.530392 68.730469 60.193359 C 71.763716 59.856326 73.503739 59.6875 73.953125 59.6875 z "
         transform="matrix(0.26458333,0,0,0.26458333,84.167603,81.000258)"
         id="path856" />
    </g>
    <g
       aria-label="K"
       style="font-style:normal;font-weight:normal;font-size:22.29296684px;line-height:1.25;font-family:sans-serif;letter-spacing:0px;word-spacing:0px;fill:#000000;fill-opacity:1;stroke:none;stroke-width:0.55732417"
       id="text882" />
  </g>
</svg>
